<svg width="32" height="32" viewBox="0 0 32 32" fill="none" xmlns="http://www.w3.org/2000/svg">
<g id="&#240;&#159;&#166;&#134; icon &#34;instagram alt icon&#34;">
<path id="Vector" d="M31.8439 9.44495C31.8244 8.10201 31.576 6.76971 31.1006 5.51369C30.2685 3.36889 28.5743 1.67291 26.4295 0.842666C25.1895 0.376095 23.8785 0.125956 22.5515 0.0975719C20.8449 0.0212885 20.3038 0 15.9716 0C11.6394 0 11.0842 1.18958e-07 9.38996 0.0975719C8.06475 0.125956 6.75374 0.376095 5.51369 0.842666C3.36889 1.67291 1.67291 3.36889 0.842665 5.51369C0.376095 6.75374 0.124182 8.06475 0.0993458 9.38996C0.0230624 11.0983 0 11.6394 0 15.9716C0 20.3038 -1.32176e-08 20.8573 0.0993458 22.5533C0.125956 23.8803 0.376095 25.1895 0.842665 26.4331C1.67469 28.5761 3.36889 30.2721 5.51547 31.1023C6.7502 31.5849 8.06121 31.8581 9.39173 31.9007C11.1001 31.9769 11.6412 32 15.9734 32C20.3056 32 20.8609 32 22.5551 31.9007C23.8803 31.874 25.1913 31.6239 26.4331 31.1573C28.5779 30.3253 30.2721 28.6293 31.1041 26.4863C31.5707 25.2445 31.8208 23.9353 31.8474 22.6065C31.9237 20.8999 31.9468 20.3588 31.9468 16.0248C31.9432 11.6927 31.9432 11.1427 31.8439 9.44495ZM15.961 24.1641C11.4301 24.1641 7.75962 20.4936 7.75962 15.9627C7.75962 11.4319 11.4301 7.76139 15.961 7.76139C20.4883 7.76139 24.1623 11.4319 24.1623 15.9627C24.1623 20.4936 20.4883 24.1641 15.961 24.1641ZM24.4888 9.37044C23.4297 9.37044 22.5763 8.51536 22.5763 7.45803C22.5763 6.40071 23.4297 5.54563 24.4888 5.54563C25.5443 5.54563 26.3994 6.40071 26.3994 7.45803C26.3994 8.51536 25.5443 9.37044 24.4888 9.37044Z" fill="#E84122"/>
<path id="Vector_2" d="M15.961 21.2903C18.9033 21.2903 21.2884 18.9052 21.2884 15.9629C21.2884 13.0207 18.9033 10.6355 15.961 10.6355C13.0188 10.6355 10.6336 13.0207 10.6336 15.9629C10.6336 18.9052 13.0188 21.2903 15.961 21.2903Z" fill="#E84122"/>
</g>
</svg>
