<svg width="33" height="32" viewBox="0 0 33 32" fill="none" xmlns="http://www.w3.org/2000/svg">
<path id="Vector" d="M16.9468 0C8.10755 0 0.946777 7.16181 0.946777 16C0.946777 24.8382 8.10858 32 16.9468 32C25.786 32 32.9468 24.8382 32.9468 16C32.9468 7.16181 25.785 0 16.9468 0ZM24.8054 10.9615L22.1793 23.3363C21.9852 24.2137 21.4629 24.4263 20.7341 24.0134L16.7341 21.0653L14.8048 22.9234C14.5922 23.136 14.4116 23.3166 13.9986 23.3166L14.2825 19.2454L21.6952 12.5481C22.0183 12.2643 21.6239 12.1032 21.1976 12.3871L12.0363 18.1543L8.08794 16.9218C7.23013 16.6514 7.21052 16.064 8.26858 15.6511L23.6946 9.70219C24.411 9.44413 25.0366 9.87665 24.8043 10.9605L24.8054 10.9615Z" fill="#E84122"/>
</svg>
