<svg width="32" height="32" viewBox="0 0 32 32" fill="none" xmlns="http://www.w3.org/2000/svg">
<g id="&#240;&#159;&#166;&#134; icon &#34;whatsapp&#34;">
<path id="Vector" d="M31.9737 15.0564C31.4298 5.77766 22.9989 -1.37339 13.2881 0.2264C6.60098 1.33026 1.24168 6.75352 0.201817 13.4406C-0.406103 17.3121 0.393824 20.9756 2.1376 23.9992L0.713766 29.2945C0.393808 30.4944 1.49763 31.5822 2.68148 31.2463L7.89681 29.8065C10.2645 31.1983 13.0322 31.9982 15.9918 31.9982C25.0146 31.9982 32.5016 24.0472 31.9737 15.0564ZM23.8147 21.9515C23.6708 22.2394 23.4948 22.5114 23.2708 22.7674C22.8709 23.1993 22.4389 23.5193 21.959 23.7113C21.4791 23.9192 20.9511 24.0152 20.3912 24.0152C19.5753 24.0152 18.6954 23.8234 17.7835 23.4234C16.8557 23.0235 15.9438 22.4954 15.0319 21.8395C14.104 21.1676 13.2401 20.4157 12.4082 19.5998C11.5763 18.7679 10.8404 17.888 10.1685 16.9761C9.51257 16.0643 8.98467 15.1524 8.60072 14.2405C8.21677 13.3286 8.02483 12.4488 8.02483 11.6169C8.02483 11.073 8.1208 10.545 8.31277 10.0651C8.50475 9.56916 8.80874 9.12124 9.24068 8.72129C9.75262 8.20936 10.3125 7.96939 10.9044 7.96939C11.1284 7.96939 11.3523 8.01737 11.5603 8.11335C11.7683 8.20934 11.9603 8.35332 12.1043 8.56129L13.96 11.1849C14.104 11.3929 14.216 11.5689 14.28 11.7449C14.36 11.9208 14.392 12.0808 14.392 12.2408C14.392 12.4328 14.328 12.6248 14.216 12.8167C14.104 13.0086 13.96 13.2006 13.7681 13.3926L13.1601 14.0325C13.0642 14.1285 13.0322 14.2245 13.0322 14.3525C13.0322 14.4165 13.0482 14.4805 13.0642 14.5444C13.0961 14.6084 13.1121 14.6564 13.1281 14.7044C13.2721 14.9764 13.5281 15.3123 13.88 15.7283C14.248 16.1442 14.6319 16.5762 15.0479 16.9921C15.4798 17.4241 15.8958 17.808 16.3277 18.176C16.7437 18.5279 17.0956 18.7679 17.3676 18.9119C17.4156 18.9279 17.4636 18.9599 17.5116 18.9759C17.5756 19.0079 17.6396 19.0079 17.7195 19.0079C17.8635 19.0079 17.9595 18.9599 18.0555 18.8639L18.6634 18.256C18.8714 18.048 19.0634 17.904 19.2393 17.808C19.4313 17.696 19.6073 17.632 19.8153 17.632C19.9752 17.632 20.1352 17.664 20.3112 17.744C20.4872 17.824 20.6792 17.92 20.8711 18.064L23.5268 19.9517C23.7348 20.0957 23.8787 20.2717 23.9747 20.4637C24.0547 20.6716 24.1027 20.8636 24.1027 21.0876C24.0067 21.3596 23.9427 21.6635 23.8147 21.9515Z" fill="#E84122"/>
</g>
</svg>
