<svg width="32" height="32" viewBox="0 0 32 32" fill="none" xmlns="http://www.w3.org/2000/svg">
<g id="Bold / Arrows / Round Arrow Down">
<path id="Vector" fill-rule="evenodd" clip-rule="evenodd" d="M2.66666 16C2.66666 23.3637 8.63619 29.3333 16 29.3333C23.3637 29.3333 29.3333 23.3637 29.3333 16C29.3333 8.63616 23.3637 2.66663 16 2.66663C8.63619 2.66663 2.66666 8.63616 2.66666 16ZM20.7071 16.6262C21.0976 17.0168 21.0976 17.6498 20.7071 18.0404L16.7071 22.0404C16.3165 22.4309 15.6835 22.4309 15.2929 22.0404L11.2929 18.0404C10.9024 17.6498 10.9024 17.0168 11.2929 16.6262C11.6834 16.2357 12.3166 16.2357 12.7071 16.6262L15 18.919V10.6666C15 10.1143 15.4477 9.66663 16 9.66663C16.5523 9.66663 17 10.1143 17 10.6666V18.919L19.2929 16.6262C19.6835 16.2357 20.3165 16.2357 20.7071 16.6262Z" fill="#E84122"/>
</g>
</svg>
