<svg width="12" height="11" viewBox="0 0 12 11" fill="none" xmlns="http://www.w3.org/2000/svg">
<path d="M6.21983 0.225751C6.36048 0.0812027 6.55121 0 6.75009 0C6.94897 0 7.1397 0.0812027 7.28035 0.225751L11.7804 4.852C11.921 4.99659 12 5.19267 12 5.39713C12 5.60158 11.921 5.79766 11.7804 5.94225L7.28035 10.5685C7.13889 10.709 6.94944 10.7867 6.75279 10.7849C6.55614 10.7832 6.36803 10.7021 6.22897 10.5591C6.08991 10.4162 6.01103 10.2228 6.00932 10.0206C6.00762 9.81844 6.08321 9.62367 6.21983 9.47825L9.43963 6.16817H0.75001C0.551095 6.16817 0.360327 6.08693 0.219673 5.94233C0.0790188 5.79774 0 5.60162 0 5.39713C0 5.19263 0.0790188 4.99652 0.219673 4.85192C0.360327 4.70732 0.551095 4.62608 0.75001 4.62608H9.43963L6.21983 1.316C6.07923 1.17141 6.00024 0.975329 6.00024 0.770877C6.00024 0.566424 6.07923 0.370342 6.21983 0.225751Z" fill="white"/>
</svg>
